<?xml version="1.0" encoding="UTF-8"?>
<svg id="Layer_1" xmlns="http://www.w3.org/2000/svg" xmlns:xlink="http://www.w3.org/1999/xlink" version="1.1" viewBox="0 0 600 600">
  <!-- Generator: Adobe Illustrator 29.3.1, SVG Export Plug-In . SVG Version: 2.1.0 Build 151)  -->
  <defs>
    <style>
      .st0, .st1, .st2, .st3, .st4, .st5, .st6, .st7, .st8, .st9 {
        stroke: #000;
        stroke-width: 2px;
      }

      .st0, .st1, .st3, .st6, .st9 {
        stroke-miterlimit: 10;
      }

      .st0, .st10 {
        fill: #f2f2f2;
      }

      .st2 {
        fill: #838bc5;
      }

      .st2, .st4, .st5, .st7, .st11, .st8 {
        stroke-linecap: round;
        stroke-linejoin: round;
      }

      .st3 {
        fill: #ccc;
      }

      .st4, .st11, .st9 {
        fill: none;
      }

      .st5 {
        fill: lime;
      }

      .st12 {
        clip-path: url(#clippath-1);
      }

      .st13 {
        fill: #fff;
      }

      .st14 {
        fill: #666;
      }

      .st6 {
        fill: #e6e6e6;
      }

      .st7 {
        fill: #4d4d4d;
      }

      .st11 {
        stroke: #fff;
      }

      .st8 {
        fill: #f0f;
      }

      .st15 {
        clip-path: url(#clippath);
      }

      .st16 {
        fill: #ff5799;
      }

      .st17 {
        fill: #999;
      }
    </style>
    <clipPath id="clippath">
      <ellipse class="st0" cx="301.2" cy="263.4" rx="16.3" ry="26.1" transform="translate(-28.1 36.2) rotate(-6.6)"/>
    </clipPath>
    <clipPath id="clippath-1">
      <ellipse class="st0" cx="272.3" cy="263.4" rx="26.1" ry="16.3" transform="translate(-20 504.4) rotate(-83.6)"/>
    </clipPath>
  </defs>
  <path class="st2" d="M481.9,387c0,63.1-363.8,63.1-363.8,0s81.4-114.2,181.9-114.2,181.9,51.1,181.9,114.2Z"/>
  <path class="st4" d="M193.2,319.4s58.1,41,59.5,80.9"/>
  <path class="st4" d="M399.2,312.3s-39.9,17.1-48.5,75.5"/>
  <g>
    <g>
      <path class="st13" d="M368.6,372.4c18.3,8,42.3,21,50.3,40.2,3.4,8.7-.7,17.4-9.7,20.3-17.2,6.1-57.7-8.6-78-15.8h0c-8.2,3.5-17.2,5.6-26.5,6.3-11.3,1.3-22.5,0-32.8-3.3l-.3.8c-18.6,7.3-62,25.7-80.4,20-9.1-2.5-13.5-11.1-10.4-19.9,6.7-18,27.3-31.2,44.6-39.9-6.1-12.3-8.5-26.3-5.8-41,1.7-10.1,5.7-19.5,11.5-27.9,3.3-4.8,6.8-9.4,9.4-14.3,4.4-8.7,7.1-18.5,9.2-28,1.5-7.4,2.5-14.9,3.1-22.4,0,0,28.8-16.9,66.6-1.7,1.7,21,5.3,41.7,15.8,60h0c7.2,10,14.2,14.6,22,27.2,8.4,12.7,13.6,25.5,11.3,39.7Z"/>
      <path class="st16" d="M318.1,223.5c.3,7.3.7,14.7,1.3,22.1-37.8-15.2-66.6,1.7-66.6,1.7.7-7.9,1.1-15.8,1.7-23.7,0,0,30.9-15.8,63.6,0Z"/>
      <path class="st13" d="M317.1,202.4c.4,7,.7,14,1,21.1-32.7-15.8-63.6,0-63.6,0,.9-11.9,2.2-23.7,5.3-35.2,3.8-14.3,9.2-29,25.8-30,11.4-1.3,22.3,5.4,26.6,16,3.8,8.8,4.3,18.6,4.9,28.1Z"/>
    </g>
    <g>
      <path class="st4" d="M225.6,381.3l-.2-.4c-6.1-12.3-8.5-26.3-5.8-41,1.7-10.1,5.7-19.5,11.5-27.9,3.3-4.8,6.8-9.4,9.4-14.3,4.4-8.7,7.1-18.5,9.2-28,1.5-7.4,2.5-14.9,3.1-22.4.7-7.9,1.1-15.8,1.7-23.7.9-11.9,2.2-23.7,5.3-35.2,3.8-14.3,9.2-29,25.8-30,11.4-1.3,22.3,5.4,26.6,16,3.8,8.8,4.3,18.6,4.9,28.1.4,7,.7,14,1,21.1.3,7.3.7,14.7,1.3,22.1,1.7,21,5.3,41.7,15.8,60"/>
      <path class="st4" d="M340.4,412.3c-2.9,1.8-6,3.3-9.1,4.7-8.2,3.5-17.2,5.6-26.5,6.3-11.3,1.3-22.5,0-32.8-3.3-2.5-.8-5-1.7-7.4-2.8"/>
      <path class="st4" d="M335.2,305.7c7.2,9.9,14.2,14.4,22,27,8.4,12.7,13.6,25.5,11.3,39.7-.5,3.1-1.3,6.3-2.6,9.5"/>
      <path class="st4" d="M271.7,420.8c-18.6,7.3-62,25.7-80.4,20-9.1-2.5-13.5-11.1-10.4-19.9,6.7-18,27.3-31.2,44.6-39.9,1.5-.7,2.9-1.4,4.3-2.1"/>
      <path class="st4" d="M331.3,417c20.2,7.2,60.7,22,78,15.8,9-2.8,13.1-11.6,9.7-20.3-8-19.2-32-32.2-50.3-40.2,0,0,0,0,0,0"/>
      <path class="st4" d="M252.8,247.3s28.8-16.9,66.6-1.7"/>
      <path class="st4" d="M254.5,223.5s30.9-15.8,63.6,0"/>
    </g>
  </g>
  <g>
    <path class="st3" d="M256.1,300.6c-3.8,5.3-.2,11.3,5.3,13.7,5.8,2.7,12.7,3.1,19.1,3.2,7,0,14-.3,20.9-.6,5.5-.3,12.1-.8,17-2.7,13.1-5.2,3.7-13.9-5-17-14.4-5.3-46.7-10.5-57.2,3.4h0Z"/>
    <path class="st4" d="M268.4,304.6s24.9-6,42.8,1.6"/>
  </g>
  <g>
    <g id="gamestick">
      <g>
        <g>
          <path class="st17" d="M333,368.4c1.5,5.2,0,11.3-5.7,14.4-5.8,3.4-9.9,2.1-14.7,0v-.2c.3-2.2.7-7.6.9-9.8h0c6.3,1.6,9.6,1.4,18.4-4.1l1-.3Z"/>
          <path class="st17" d="M333,368.4l-1,.3c-8.8,5.5-12.2,5.7-18.4,4.1-2.1-.5-4.6-1.3-7.6-2.1-4.2-.7-8.6-.3-12.8.5-1.3.3-2.4.6-3.4,1-4.8,2-6,5.9-3.2,11.8h0c-2.1,1.3-4.4,2.3-7,2.6-25.9,2.9-27.3-26.9-1.2-26.1h.2c7.8.4,15.8,1.7,23.8.6,6.4-.6,13.2-3.1,19.6-2.3,5.7.7,9.6,4.8,11,9.7Z"/>
          <path class="st14" d="M313.6,372.8h0c-.2,2.2-.6,7.7-.8,9.8v.2c-1.7-.7-3.3-1.5-5.2-2.2-4.8-1.7-11.5-1.6-16,.6-.2-1.1-1.5-7.8-1.7-8.9h0c1-.6,2.1-.9,3.4-1.2,4.2-.8,8.6-1.2,12.8-.5,3.1.8,5.5,1.5,7.6,2.1Z"/>
          <path class="st14" d="M291.6,381.3c-.1,0-.3.1-.4.2-1.5.8-3,1.7-4.6,2.6h0c-2.9-5.9-1.6-9.8,3.2-11.8h0c.2,1.3,1.5,8,1.7,9.1Z"/>
        </g>
        <g>
          <path class="st4" d="M286.7,384c-2.1,1.2-4.4,2.2-7,2.5-25.9,2.9-27.3-26.9-1.2-26.1h.2c7.8.4,15.8,1.7,23.8.6,6.4-.6,13.2-3.1,19.6-2.3,5.7.7,9.6,4.8,11,9.7,1.5,5.2,0,11.3-5.7,14.4-5.8,3.4-9.9,2.1-14.7,0-1.6-.7-3.2-1.5-5.1-2.2-4.8-1.7-11.5-1.6-16,.6-.1,0-.3.1-.4.2-1.5.8-3,1.7-4.6,2.6Z"/>
          <path class="st4" d="M286.6,384c-2.9-5.8-1.6-9.7,3.2-11.8,1-.4,2.1-.8,3.4-1,4.2-.8,8.6-1.2,12.8-.5,3.1.8,5.5,1.5,7.6,2.1,6.3,1.6,9.6,1.4,18.4-4.1"/>
          <path class="st4" d="M313.6,372.8c-.2,2.2-.6,7.6-.8,9.8"/>
          <path class="st4" d="M291.6,381.3c-.2-1.1-1.5-7.8-1.7-8.9"/>
        </g>
      </g>
      <ellipse class="st5" cx="272.3" cy="368.2" rx="3.7" ry="1.7"/>
      <ellipse class="st8" cx="283.2" cy="365" rx="3.7" ry="1.7"/>
      <ellipse class="st7" cx="320.9" cy="364.7" rx="6" ry="2.8"/>
    </g>
    <g>
      <path class="st13" d="M233.3,360h0c6.4,2.7,13.3,4.1,20.4,4.7,2.8-3.5,5.9-7.8,9.9-9.9,5-2.7,12.1-3.1,15.7,1.3,4.7,7.7-7.8,9.6-11.9,13.1-4.3,3.4-2.5,8.8,1.7,11.9,3.6,2.9,7.1,4.6,12.3,5.5,2.3,6.2-19.3,18.9-26.9,1-14.4.5-32.8,1.6-43-10.2-6.7-7.6-7.9-18.4-7.4-28.2.8-24.4,20.7-44.3,43.5-50.4l-12.8,35.5c1.3,8.6.8,17.3-1.5,25.7h0Z"/>
      <g>
        <line class="st11" x1="234.8" y1="334.2" x2="247.6" y2="298.7"/>
        <path class="st4" d="M247.6,298.7c-22.9,6.1-42.8,26-43.5,50.4-.4,9.8.7,20.6,7.4,28.2,10.2,11.8,28.6,10.7,43,10.2h.1"/>
        <path class="st4" d="M225.7,356c2.4,1.6,5,2.9,7.6,4h0c6.4,2.7,13.3,4.1,20.4,4.7,1.7.2,3.4.3,5.1.3"/>
        <path class="st4" d="M234.8,334.2c1.3,8.6.8,17.3-1.5,25.7"/>
        <path class="st4" d="M253.6,364.7h0c2.8-3.6,5.9-7.8,9.9-9.9,5-2.7,12.1-3.1,15.7,1.3,4.7,7.7-7.8,9.6-11.9,13.1-4.3,3.4-2.5,8.8,1.7,11.9,3.6,2.9,7.1,4.6,12.3,5.5,2.3,6.2-19.3,18.9-26.9,1-.7-1.7-1.3-3.7-1.8-6"/>
      </g>
    </g>
    <g>
      <path class="st13" d="M343.2,381.6c-7.8,19.2-28.5,12-25.7,3.2,1.7-2,6.6-1.8,8.6-4.1,5.4-5.6,2.4-11.4-2.8-15.8-5.5-4.9-7.5-9.9.7-12.3,5-1,10.6,1.6,13.5,5.7,1,1.4,1.7,2.9,2.3,4.6h0c6.5-1.8,13.8-5.5,19.8-9.7h0c-8.3-6.1-16-13-17.8-21.2l-9.8-25.3c12.6,1.2,25.7,4.7,35.6,12.9,28,25.5,14.9,64-24.4,61.9Z"/>
      <g>
        <line class="st11" x1="332" y1="306.8" x2="341.8" y2="332"/>
        <path class="st4" d="M332,306.8c12.6,1.2,25.7,4.7,35.6,12.9,28,25.5,14.9,64-24.4,61.9h0"/>
        <path class="st4" d="M339.9,363c6.5-1.8,13.8-5.5,19.8-9.7,1.6-1.2,3.2-2.4,4.6-3.6"/>
        <path class="st4" d="M341.8,332c1.8,8.2,9.6,15.1,17.8,21.1"/>
        <path class="st4" d="M341.3,368.8c-.4-1.9-.8-3.9-1.5-5.8-.6-1.6-1.3-3.2-2.3-4.6-2.9-4.1-8.5-6.7-13.5-5.7-8.1,2.4-6.2,7.3-.7,12.3,5.2,4.4,8.2,10.2,2.8,15.8-2,2.3-6.9,2.1-8.6,4.1-2.8,8.8,18,16,25.7-3.2.3-.7.6-1.5.8-2.3"/>
      </g>
    </g>
  </g>
  <g>
    <g>
      <ellipse class="st10" cx="301.2" cy="263.4" rx="16.3" ry="26.1" transform="translate(-28.1 36.2) rotate(-6.6)"/>
      <g class="st15">
        <circle class="st1" cx="301.2" cy="265.1" r="10" transform="translate(-41.7 473.5) rotate(-72.6)"/>
        <path class="st6" d="M327.8,263.9s-33.7-9.1-54.5,5.9c-20.9,15,8.7-39.6,8.7-39.6l57.5,3.1-11.7,30.6Z"/>
      </g>
      <ellipse class="st9" cx="301.2" cy="263.4" rx="16.3" ry="26.1" transform="translate(-28.1 36.2) rotate(-6.6)"/>
    </g>
    <g>
      <ellipse class="st10" cx="272.3" cy="263.4" rx="26.1" ry="16.3" transform="translate(-20 504.4) rotate(-83.6)"/>
      <g class="st12">
        <circle class="st1" cx="272.3" cy="265.1" r="10"/>
        <path class="st6" d="M245.7,263.9s33.6-9.2,54.5,5.8c20.9,15-8.8-39.6-8.8-39.6l-57.5,3.3,11.8,30.5Z"/>
      </g>
      <ellipse class="st9" cx="272.3" cy="263.4" rx="26.1" ry="16.3" transform="translate(-20 504.4) rotate(-83.6)"/>
    </g>
  </g>
</svg>